<svg width="28" height="29" viewBox="0 0 28 29" fill="none" xmlns="http://www.w3.org/2000/svg">
<path fill-rule="evenodd" clip-rule="evenodd" d="M15.7964 0.665387C16.6108 1.01892 17.0947 1.86706 16.9846 2.74806L16.0656 10.1H24.6C25.3761 10.1 26.082 10.5489 26.4112 11.2517C26.7404 11.9544 26.6333 12.7842 26.1365 13.3804L14.1365 27.7804C13.5681 28.4624 12.6181 28.6881 11.8036 28.3346C10.9892 27.9811 10.5053 27.1329 10.6155 26.2519L11.5345 18.9H3.00002C2.22399 18.9 1.51801 18.4511 1.18885 17.7483C0.859686 17.0455 0.966776 16.2158 1.46358 15.6196L13.4636 1.21962C14.032 0.537553 14.982 0.311849 15.7964 0.665387ZM7.27011 14.9H13.8C14.3737 14.9 14.9197 15.1463 15.2994 15.5764C15.679 16.0064 15.8557 16.5788 15.7846 17.1481L15.4307 19.9791L20.3299 14.1H13.8C13.2264 14.1 12.6803 13.8537 12.3007 13.4236C11.921 12.9935 11.7443 12.4212 11.8155 11.8519L12.1693 9.0209L7.27011 14.9Z" fill="#0147FF" stroke="black" stroke-linecap="round" stroke-linejoin="round"/>
</svg>
